G04 MADE WITH FRITZING*
G04 WWW.FRITZING.ORG*
G04 DOUBLE SIDED*
G04 HOLES PLATED*
G04 CONTOUR ON CENTER OF CONTOUR VECTOR*
%ASAXBY*%
%FSLAX23Y23*%
%MOIN*%
%OFA0B0*%
%SFA1.0B1.0*%
%ADD10C,0.076000*%
%ADD11C,0.168110*%
%ADD12C,0.073018*%
%ADD13C,0.074000*%
%ADD14C,0.090000*%
%ADD15C,0.096614*%
%ADD16C,0.088000*%
%ADD17C,0.084000*%
%ADD18R,0.076000X0.076000*%
%ADD19R,0.072984X0.072983*%
%ADD20R,0.072511X0.197493*%
%ADD21R,0.089986X0.090000*%
%ADD22R,0.088000X0.088000*%
%ADD23R,0.084000X0.084000*%
%LNMASK0*%
G90*
G70*
G54D10*
X3782Y2340D03*
X782Y1940D03*
X782Y1140D03*
X3782Y2240D03*
G54D11*
X782Y2615D03*
G54D10*
X3782Y2140D03*
X782Y1540D03*
X3782Y2040D03*
X782Y740D03*
X3782Y1940D03*
X782Y2140D03*
X3782Y1840D03*
X782Y1740D03*
X3782Y1740D03*
X782Y1340D03*
X3782Y1640D03*
X782Y940D03*
X3782Y1540D03*
X782Y540D03*
X3782Y1440D03*
G54D11*
X3782Y2615D03*
G54D10*
X3782Y1340D03*
X782Y2040D03*
X3782Y1240D03*
X782Y1840D03*
X3782Y1140D03*
X782Y1640D03*
X3782Y1040D03*
X782Y1440D03*
X3782Y940D03*
X782Y1240D03*
X3782Y840D03*
X782Y1040D03*
X3782Y740D03*
X782Y840D03*
X3782Y640D03*
X782Y640D03*
X3782Y540D03*
G54D11*
X782Y365D03*
G54D10*
X782Y2440D03*
G54D11*
X3782Y365D03*
G54D10*
X782Y2340D03*
X782Y2240D03*
X3782Y2440D03*
G54D12*
X2582Y4340D03*
X1682Y4340D03*
X2582Y4240D03*
X2582Y4140D03*
X2582Y4040D03*
X2582Y3940D03*
X2582Y3840D03*
X2582Y3740D03*
X2582Y3640D03*
X1682Y4240D03*
X1682Y4140D03*
X1682Y4040D03*
X1682Y3940D03*
X1682Y3840D03*
X1682Y3740D03*
X1682Y3640D03*
G54D13*
X3282Y3640D03*
X3282Y3740D03*
X3282Y3840D03*
X3282Y3940D03*
X3282Y4040D03*
X3282Y4140D03*
G54D14*
X582Y4440D03*
X582Y4240D03*
G54D15*
X1082Y4140D03*
X1082Y3240D03*
G54D16*
X2882Y4240D03*
X2882Y4140D03*
X2882Y4040D03*
G54D17*
X4082Y3340D03*
X4082Y3240D03*
X4082Y3140D03*
X4082Y3040D03*
X4082Y2940D03*
X4082Y2840D03*
G54D18*
X782Y2440D03*
X3782Y2440D03*
G54D19*
X2582Y4340D03*
X1682Y4340D03*
G54D20*
X2214Y4249D03*
G54D21*
X582Y4440D03*
G54D22*
X2882Y4240D03*
G54D23*
X4082Y3340D03*
G04 End of Mask0*
M02*