G04 MADE WITH FRITZING*
G04 WWW.FRITZING.ORG*
G04 DOUBLE SIDED*
G04 HOLES PLATED*
G04 CONTOUR ON CENTER OF CONTOUR VECTOR*
%ASAXBY*%
%FSLAX23Y23*%
%MOIN*%
%OFA0B0*%
%SFA1.0B1.0*%
%ADD10C,0.066000*%
%ADD11C,0.158110*%
%ADD12C,0.063018*%
%ADD13C,0.064000*%
%ADD14C,0.080000*%
%ADD15C,0.078000*%
%ADD16C,0.074000*%
%ADD17R,0.066000X0.066000*%
%ADD18R,0.062984X0.062983*%
%ADD19R,0.062511X0.187493*%
%ADD20R,0.079986X0.080000*%
%ADD21R,0.078000X0.078000*%
%ADD22R,0.074000X0.074000*%
%ADD23C,0.024000*%
%LNCOPPER0*%
G90*
G70*
G54D10*
X3782Y2340D03*
X782Y1940D03*
X782Y1140D03*
X3782Y2240D03*
G54D11*
X782Y2615D03*
G54D10*
X3782Y2140D03*
X782Y1540D03*
X3782Y2040D03*
X782Y740D03*
X3782Y1940D03*
X782Y2140D03*
X3782Y1840D03*
X782Y1740D03*
X3782Y1740D03*
X782Y1340D03*
X3782Y1640D03*
X782Y940D03*
X3782Y1540D03*
X782Y540D03*
X3782Y1440D03*
G54D11*
X3782Y2615D03*
G54D10*
X3782Y1340D03*
X782Y2040D03*
X3782Y1240D03*
X782Y1840D03*
X3782Y1140D03*
X782Y1640D03*
X3782Y1040D03*
X782Y1440D03*
X3782Y940D03*
X782Y1240D03*
X3782Y840D03*
X782Y1040D03*
X3782Y740D03*
X782Y840D03*
X3782Y640D03*
X782Y640D03*
X3782Y540D03*
G54D11*
X782Y365D03*
G54D10*
X782Y2440D03*
G54D11*
X3782Y365D03*
G54D10*
X782Y2340D03*
X782Y2240D03*
X3782Y2440D03*
G54D12*
X2582Y4340D03*
X1682Y4340D03*
X2582Y4240D03*
X2582Y4140D03*
X2582Y4040D03*
X2582Y3940D03*
X2582Y3840D03*
X2582Y3740D03*
X2582Y3640D03*
X1682Y4240D03*
X1682Y4140D03*
X1682Y4040D03*
X1682Y3940D03*
X1682Y3840D03*
X1682Y3740D03*
X1682Y3640D03*
G54D13*
X3282Y3640D03*
X3282Y3740D03*
X3282Y3840D03*
X3282Y3940D03*
X3282Y4040D03*
X3282Y4140D03*
G54D14*
X582Y4440D03*
X582Y4240D03*
G54D15*
X2882Y4240D03*
X2882Y4140D03*
X2882Y4040D03*
G54D16*
X4082Y3340D03*
X4082Y3240D03*
X4082Y3140D03*
X4082Y3040D03*
X4082Y2940D03*
X4082Y2840D03*
G54D17*
X782Y2440D03*
X3782Y2440D03*
G54D18*
X2582Y4340D03*
X1682Y4340D03*
G54D19*
X2214Y4249D03*
G54D20*
X582Y4440D03*
G54D21*
X2882Y4240D03*
G54D22*
X4082Y3340D03*
G54D23*
X382Y4537D02*
X2084Y4537D01*
D02*
X2084Y4537D02*
X2484Y4240D01*
D02*
X382Y2138D02*
X382Y4537D01*
D02*
X2484Y4240D02*
X2566Y4240D01*
D02*
X762Y2140D02*
X382Y2138D01*
D02*
X1284Y3737D02*
X1666Y3740D01*
D02*
X801Y2046D02*
X1484Y2241D01*
D02*
X1484Y2241D02*
X1284Y3737D01*
D02*
X382Y241D02*
X2581Y338D01*
D02*
X382Y1138D02*
X382Y241D01*
D02*
X2581Y338D02*
X2581Y2338D01*
D02*
X382Y1841D02*
X382Y1138D01*
D02*
X762Y1840D02*
X382Y1841D01*
D02*
X2581Y2338D02*
X2381Y2840D01*
D02*
X2381Y2840D02*
X1884Y3640D01*
D02*
X1884Y3640D02*
X1693Y3829D01*
D02*
X485Y2338D02*
X981Y3937D01*
D02*
X981Y3937D02*
X1666Y3940D01*
D02*
X763Y2246D02*
X485Y2338D01*
G04 End of Copper0*
M02*