; NON-PLATED HOLES START AT T1
; THROUGH (PLATED) HOLES START AT T100
M48
INCH
T1C0.086614
T100C0.040000
T101C0.039370
T102C0.031522
T103C0.038000
T104C0.118110
%
T1
X010817Y032400
X010817Y041400
T100
X040817Y033400
X040817Y029400
X032817Y036400
X032817Y038400
X040817Y030400
X005817Y042401
X032817Y041400
X032817Y040400
X005817Y044401
X040817Y032400
X040817Y028401
X040817Y031400
X032817Y037400
X032817Y039400
T101
X037817Y016401
X037817Y007400
X007817Y007400
X037817Y005400
X007817Y015401
X007817Y006400
X037817Y019401
X037817Y009401
X007817Y022401
X007817Y008401
X037817Y024401
X007817Y016401
X007817Y013401
X037817Y010401
X037817Y020401
X037817Y017401
X007817Y017401
X007817Y014401
X007817Y023401
X007817Y012401
X037817Y011401
X037817Y023401
X007817Y020401
X007817Y005400
X007817Y024401
X037817Y008401
X037817Y018401
X007817Y021401
X007817Y019401
X037817Y013401
X007817Y018401
X007817Y011401
X037817Y006400
X007817Y009401
X037817Y021401
X037817Y014401
X037817Y022401
X007817Y010401
X037817Y015401
X037817Y012401
T102
X025817Y039401
X025817Y036401
X025817Y040401
X025817Y042400
X016817Y042400
X016817Y041400
X025817Y037400
X025817Y038400
X016817Y038400
X025817Y043400
X025817Y041400
X016817Y040401
X016817Y037400
X016817Y036401
X016817Y039401
X016817Y043400
T103
X028817Y040400
X028817Y041400
X028817Y042400
T104
X007817Y003650
X037817Y003650
X037817Y026151
X007817Y026151
T00
M30
